<svg width="716" height="1024" viewBox="0 0 716 1024" fill="none" xmlns="http://www.w3.org/2000/svg">
<path fill-rule="evenodd" clip-rule="evenodd" d="M369.748 85.2319C369.748 61.6957 378.199 41.6064 395.101 24.9638C412.004 8.32128 432.407 0 456.311 0C480.214 0 500.617 8.32128 517.52 24.9638C534.422 41.6064 542.874 61.6957 542.874 85.2319C542.874 108.768 534.422 128.857 517.52 145.5C500.617 162.142 480.214 170.464 456.311 170.464C432.407 170.464 412.004 162.142 395.101 145.5C378.199 128.857 369.748 108.768 369.748 85.2319Z" fill="#9CF0BA"/>
<path fill-rule="evenodd" clip-rule="evenodd" d="M369.748 597.841C369.748 574.304 378.199 554.215 395.101 537.573C412.004 520.93 432.407 512.609 456.311 512.609C480.214 512.609 500.617 520.93 517.52 537.573C534.422 554.215 542.874 574.304 542.874 597.841C542.874 621.377 534.422 641.466 517.52 658.109C500.617 674.751 480.214 683.072 456.311 683.072C432.407 683.072 412.004 674.751 395.101 658.109C378.199 641.466 369.748 621.377 369.748 597.841Z" fill="#9CF0BA"/>
<path fill-rule="evenodd" clip-rule="evenodd" d="M629.437 0H716V170.464H542.874V85.2319C542.874 38.1596 581.629 0 629.437 0Z" fill="#A2B0EE"/>
<path fill-rule="evenodd" clip-rule="evenodd" d="M629.437 512.609H716V683.072H542.874V597.841C542.874 550.768 581.629 512.609 629.437 512.609Z" fill="#A2B0EE"/>
<path fill-rule="evenodd" clip-rule="evenodd" d="M628.2 340.927C676.008 340.927 714.764 379.087 714.764 426.159V511.391H541.637V426.159C541.637 379.087 580.393 340.927 628.2 340.927Z" fill="#A8EBF0"/>
<path fill-rule="evenodd" clip-rule="evenodd" d="M628.2 853.536C676.008 853.536 714.764 891.696 714.764 938.768V1024H541.637V938.768C541.637 891.696 580.393 853.536 628.2 853.536Z" fill="#A8EBF0"/>
<path fill-rule="evenodd" clip-rule="evenodd" d="M368.511 340.927H455.074C502.882 340.927 541.637 379.087 541.637 426.159V511.391H455.074C407.267 511.391 368.511 473.232 368.511 426.159V340.927Z" fill="#A2B0EE"/>
<path fill-rule="evenodd" clip-rule="evenodd" d="M368.511 853.536H455.074C502.882 853.536 541.637 891.696 541.637 938.768V1024H455.074C407.267 1024 368.511 985.84 368.511 938.768V853.536Z" fill="#A2B0EE"/>
<path fill-rule="evenodd" clip-rule="evenodd" d="M542.874 170.464H716V340.928H629.437C581.629 340.928 542.874 302.768 542.874 255.696V170.464Z" fill="#9CF0BA"/>
<path fill-rule="evenodd" clip-rule="evenodd" d="M542.874 683.073H716V853.536H629.437C581.629 853.536 542.874 815.377 542.874 768.304V683.073Z" fill="#9CF0BA"/>
<path fill-rule="evenodd" clip-rule="evenodd" d="M369.748 170.464H542.874V255.696C542.874 302.768 504.118 340.928 456.311 340.928H369.748V170.464Z" fill="#A8EBF0"/>
<path fill-rule="evenodd" clip-rule="evenodd" d="M369.748 683.073H542.874V768.304C542.874 815.377 504.118 853.536 456.311 853.536H369.748V683.073Z" fill="#A8EBF0"/>
<path fill-rule="evenodd" clip-rule="evenodd" d="M173.126 85.2319C173.126 61.6957 181.577 41.6064 198.48 24.9638C215.382 8.32128 235.786 0 259.689 0C283.593 0 303.996 8.32128 320.899 24.9638C337.801 41.6064 346.252 61.6957 346.252 85.2319C346.252 108.768 337.801 128.857 320.899 145.5C303.996 162.142 283.593 170.464 259.689 170.464C235.786 170.464 215.382 162.142 198.48 145.5C181.577 128.857 173.126 108.768 173.126 85.2319Z" fill="#9CF0BA"/>
<path fill-rule="evenodd" clip-rule="evenodd" d="M173.126 597.841C173.126 574.305 181.577 554.215 198.48 537.573C215.382 520.93 235.786 512.609 259.689 512.609C283.593 512.609 303.996 520.93 320.899 537.573C337.801 554.215 346.252 574.305 346.252 597.841C346.252 621.377 337.801 641.466 320.899 658.109C303.996 674.751 283.593 683.072 259.689 683.072C235.786 683.072 215.382 674.751 198.48 658.109C181.577 641.466 173.126 621.377 173.126 597.841Z" fill="#9CF0BA"/>
<path fill-rule="evenodd" clip-rule="evenodd" d="M0 0H86.563C134.37 0 173.126 38.1596 173.126 85.2319V170.464H0V0Z" fill="#A2B0EE"/>
<path fill-rule="evenodd" clip-rule="evenodd" d="M0 512.609H86.563C134.37 512.609 173.126 550.768 173.126 597.841V683.072H0V512.609Z" fill="#A2B0EE"/>
<path fill-rule="evenodd" clip-rule="evenodd" d="M87.7996 340.927C135.607 340.927 174.363 379.087 174.363 426.159V511.391H1.23657V426.159C1.23656 379.087 39.9922 340.927 87.7996 340.927Z" fill="#A8EBF0"/>
<path fill-rule="evenodd" clip-rule="evenodd" d="M87.7996 853.536C135.607 853.536 174.363 891.696 174.363 938.768V1024H1.23657V938.768C1.23656 891.696 39.9922 853.536 87.7996 853.536Z" fill="#A8EBF0"/>
<path fill-rule="evenodd" clip-rule="evenodd" d="M260.926 340.927H347.489V426.159C347.489 473.232 308.733 511.391 260.926 511.391H174.363V426.159C174.363 379.087 213.118 340.927 260.926 340.927Z" fill="#A2B0EE"/>
<path fill-rule="evenodd" clip-rule="evenodd" d="M260.926 853.536H347.489V938.768C347.489 985.84 308.733 1024 260.926 1024H174.363V938.768C174.363 891.696 213.118 853.536 260.926 853.536Z" fill="#A2B0EE"/>
<path fill-rule="evenodd" clip-rule="evenodd" d="M0 170.464H173.126V255.696C173.126 302.768 134.37 340.928 86.563 340.928H0V170.464Z" fill="#9CF0BA"/>
<path fill-rule="evenodd" clip-rule="evenodd" d="M0 683.073H173.126V768.304C173.126 815.377 134.37 853.536 86.563 853.536H0V683.073Z" fill="#9CF0BA"/>
<path fill-rule="evenodd" clip-rule="evenodd" d="M173.126 170.464H346.252V340.928H259.689C211.882 340.928 173.126 302.768 173.126 255.696V170.464Z" fill="#A8EBF0"/>
<path fill-rule="evenodd" clip-rule="evenodd" d="M173.126 683.073H346.252V853.536H259.689C211.882 853.536 173.126 815.377 173.126 768.304V683.073Z" fill="#A8EBF0"/>
</svg>
