<svg width="24" height="24" viewBox="0 0 24 24" fill="none" xmlns="http://www.w3.org/2000/svg">
<path fill-rule="evenodd" clip-rule="evenodd" d="M16.5508 0C17.4188 0 18.2512 0.344804 18.865 0.95856L23.0414 5.13503C23.6552 5.74879 24 6.58121 24 7.4492V20.7273C24 22.5348 22.5348 24 20.7273 24H3.27273C1.46525 24 0 22.5348 0 20.7273V3.27273C0 1.46525 1.46525 0 3.27273 0H16.5508ZM6.54545 5.45455V2.18182H14.1818V5.45455C14.1818 6.05703 13.6934 6.54545 13.0909 6.54545H7.63636C7.03388 6.54545 6.54545 6.05703 6.54545 5.45455ZM16.3636 5.45455V2.18182H16.5508C16.8401 2.18182 17.1176 2.29676 17.3222 2.50133L21.4987 6.6778C21.7032 6.88239 21.8182 7.15987 21.8182 7.4492V20.7273C21.8182 21.3298 21.3298 21.8182 20.7273 21.8182H3.27273C2.67024 21.8182 2.18182 21.3298 2.18182 20.7273V3.27273C2.18182 2.67024 2.67024 2.18182 3.27273 2.18182H4.36364V5.45455C4.36364 7.26202 5.82889 8.72727 7.63636 8.72727H13.0909C14.8984 8.72727 16.3636 7.26202 16.3636 5.45455ZM9.81818 15.2727C9.81818 14.0677 10.795 13.0909 12 13.0909C13.205 13.0909 14.1818 14.0677 14.1818 15.2727C14.1818 16.4777 13.205 17.4545 12 17.4545C10.795 17.4545 9.81818 16.4777 9.81818 15.2727ZM12 10.9091C9.59003 10.9091 7.63636 12.8628 7.63636 15.2727C7.63636 17.6827 9.59003 19.6364 12 19.6364C14.4099 19.6364 16.3636 17.6827 16.3636 15.2727C16.3636 12.8628 14.4099 10.9091 12 10.9091Z" fill="black"/>
</svg>
