<svg width="398" height="23" viewBox="0 0 398 23" fill="none" xmlns="http://www.w3.org/2000/svg">
<path d="M1 11.2738H396.957" stroke="#E0E0E0" stroke-linecap="square"/>
<rect x="149.484" width="98.9893" height="22.5476" fill="#FAFBFF"/>
<path d="M195.12 15.1664C194.309 15.1664 193.597 14.9744 192.982 14.5904C192.368 14.2064 191.886 13.6645 191.536 12.9648C191.195 12.2651 191.024 11.4459 191.024 10.5072C191.024 9.56853 191.195 8.7536 191.536 8.0624C191.886 7.36267 192.368 6.8208 192.982 6.4368C193.597 6.04427 194.309 5.848 195.12 5.848C195.922 5.848 196.63 6.04427 197.245 6.4368C197.859 6.8208 198.337 7.36267 198.678 8.0624C199.028 8.7536 199.203 9.56853 199.203 10.5072C199.203 11.4459 199.028 12.2651 198.678 12.9648C198.337 13.6645 197.859 14.2064 197.245 14.5904C196.63 14.9744 195.922 15.1664 195.12 15.1664ZM195.12 14.3984C195.76 14.3984 196.323 14.2448 196.81 13.9376C197.304 13.6219 197.688 13.1739 197.962 12.5936C198.243 12.0048 198.384 11.3093 198.384 10.5072C198.384 9.70507 198.243 9.01387 197.962 8.4336C197.688 7.85333 197.304 7.4096 196.81 7.1024C196.323 6.78667 195.76 6.6288 195.12 6.6288C194.48 6.6288 193.912 6.78667 193.418 7.1024C192.923 7.4096 192.534 7.85333 192.253 8.4336C191.971 9.01387 191.83 9.70507 191.83 10.5072C191.83 11.3093 191.971 12.0048 192.253 12.5936C192.534 13.1739 192.923 13.6219 193.418 13.9376C193.912 14.2448 194.48 14.3984 195.12 14.3984ZM202.818 15.1408C202.17 15.1408 201.645 14.9317 201.244 14.5136C200.843 14.0955 200.642 13.4981 200.642 12.7216V8.8688H201.41V12.6192C201.41 13.2165 201.551 13.6645 201.833 13.9632C202.123 14.2619 202.494 14.4112 202.946 14.4112C203.467 14.4112 203.889 14.2491 204.213 13.9248C204.538 13.6005 204.7 13.2037 204.7 12.7344V8.8688H205.481V14.9872H204.751L204.725 14.1296C204.546 14.4112 204.29 14.6501 203.957 14.8464C203.625 15.0427 203.245 15.1408 202.818 15.1408Z" fill="#616161"/>
</svg>
