<svg width="41" height="41" viewBox="0 0 41 41" fill="none" xmlns="http://www.w3.org/2000/svg">
<g id="google">
<circle id="Ellipse" cx="20.4512" cy="20.8083" r="20" fill="white"/>
<g id="icons8-google">
<mask id="mask0_103_130" style="mask-type:luminance" maskUnits="userSpaceOnUse" x="5" y="5" width="31" height="31">
<rect id="Background" x="5.45093" y="5.80835" width="30" height="30" fill="white"/>
</mask>
<g mask="url(#mask0_103_130)">
<path id="Shape" fill-rule="evenodd" clip-rule="evenodd" d="M32.7078 18.3602H31.7009V18.3083H20.4509V23.3083H27.5153C26.4847 26.219 23.7153 28.3083 20.4509 28.3083C16.3091 28.3083 12.9509 24.9502 12.9509 20.8083C12.9509 16.6665 16.3091 13.3083 20.4509 13.3083C22.3628 13.3083 24.1022 14.0296 25.4266 15.2077L28.9622 11.6721C26.7297 9.59147 23.7434 8.30835 20.4509 8.30835C13.5478 8.30835 7.95093 13.9052 7.95093 20.8083C7.95093 27.7115 13.5478 33.3083 20.4509 33.3083C27.3541 33.3083 32.9509 27.7115 32.9509 20.8083C32.9509 19.9702 32.8647 19.1521 32.7078 18.3602Z" fill="#FFC107"/>
<path id="Shape_2" fill-rule="evenodd" clip-rule="evenodd" d="M9.39209 14.9902L13.499 18.0021C14.6102 15.2508 17.3015 13.3083 20.4508 13.3083C22.3627 13.3083 24.1021 14.0296 25.4265 15.2077L28.9621 11.6721C26.7296 9.59147 23.7433 8.30835 20.4508 8.30835C15.6496 8.30835 11.4858 11.019 9.39209 14.9902Z" fill="#FF3D00"/>
<path id="Shape_3" fill-rule="evenodd" clip-rule="evenodd" d="M20.4506 33.3088C23.6794 33.3088 26.6131 32.0732 28.8313 30.0638L24.9625 26.79C23.7075 27.7407 22.1475 28.3088 20.4506 28.3088C17.1994 28.3088 14.4388 26.2357 13.3988 23.3425L9.32251 26.4832C11.3913 30.5313 15.5925 33.3088 20.4506 33.3088Z" fill="#4CAF50"/>
<path id="Shape_4" fill-rule="evenodd" clip-rule="evenodd" d="M32.7078 18.3602H31.7009V18.3083H20.4509V23.3083H27.5153C27.0203 24.7065 26.1209 25.9121 24.9609 26.7902C24.9616 26.7896 24.9622 26.7896 24.9628 26.789L28.8316 30.0627C28.5578 30.3115 32.9509 27.0583 32.9509 20.8083C32.9509 19.9702 32.8647 19.1521 32.7078 18.3602Z" fill="#1976D2"/>
</g>
</g>
</g>
</svg>
