<svg width="68" height="63" viewBox="0 0 68 63" fill="none" xmlns="http://www.w3.org/2000/svg">
<g id="&#240;&#159;&#166;&#134; icon &#34;menu&#34;">
<g id="Group">
<path id="Vector" opacity="0.4" d="M48.2701 0H19.7638C7.38168 0 0 6.79654 0 18.1972V44.4124C0 55.8444 7.38168 62.641 19.7638 62.641H48.236C60.6182 62.641 67.9999 55.8444 67.9999 44.4438V18.1972C68.0339 6.79654 60.6522 0 48.2701 0Z" fill="#292D32"/>
<path id="Vector_2" d="M51.0254 19.5753H17.0084C15.6137 19.5753 14.4572 18.5104 14.4572 17.2262C14.4572 15.9421 15.6137 14.8772 17.0084 14.8772H51.0254C52.4201 14.8772 53.5766 15.9421 53.5766 17.2262C53.5766 18.5104 52.4201 19.5753 51.0254 19.5753Z" fill="#292D32"/>
<path id="Vector_3" d="M51.0254 33.6695H17.0084C15.6137 33.6695 14.4572 32.6046 14.4572 31.3205C14.4572 30.0363 15.6137 28.9714 17.0084 28.9714H51.0254C52.4201 28.9714 53.5766 30.0363 53.5766 31.3205C53.5766 32.6046 52.4201 33.6695 51.0254 33.6695Z" fill="#292D32"/>
<path id="Vector_4" d="M51.0254 47.7637H17.0084C15.6137 47.7637 14.4572 46.6988 14.4572 45.4147C14.4572 44.1306 15.6137 43.0657 17.0084 43.0657H51.0254C52.4201 43.0657 53.5766 44.1306 53.5766 45.4147C53.5766 46.6988 52.4201 47.7637 51.0254 47.7637Z" fill="#292D32"/>
</g>
</g>
</svg>
