<svg width="59" height="60" viewBox="0 0 59 60" fill="none" xmlns="http://www.w3.org/2000/svg">
<g id="&#240;&#159;&#166;&#134; icon &#34;profile circle&#34;">
<g id="Group">
<path id="Vector" d="M58.2872 30C58.2872 13.47 45.2018 0 29.1436 0C13.0855 0 0 13.47 0 30C0 38.7 3.64295 46.53 9.41339 52.02C9.41339 52.05 9.41339 52.05 9.38424 52.08C9.67568 52.38 10.0254 52.62 10.3168 52.89C10.4917 53.04 10.6374 53.19 10.8123 53.31C11.3369 53.76 11.9197 54.18 12.4735 54.6C12.6775 54.75 12.8523 54.87 13.0563 55.02C13.6101 55.41 14.1929 55.77 14.805 56.1C15.009 56.22 15.2421 56.37 15.4461 56.49C16.029 56.82 16.641 57.12 17.2822 57.39C17.5153 57.51 17.7485 57.63 17.9816 57.72C18.6228 57.99 19.2639 58.23 19.9051 58.44C20.1382 58.53 20.3714 58.62 20.6045 58.68C21.304 58.89 22.0034 59.07 22.7029 59.25C22.9069 59.31 23.1109 59.37 23.344 59.4C24.1601 59.58 24.9761 59.7 25.8212 59.79C25.9378 59.79 26.0544 59.82 26.171 59.85C27.1618 59.94 28.1527 60 29.1436 60C30.1345 60 31.1254 59.94 32.0871 59.85C32.2037 59.85 32.3203 59.82 32.4368 59.79C33.282 59.7 34.098 59.58 34.9141 59.4C35.1181 59.37 35.3221 59.28 35.5552 59.25C36.2547 59.07 36.9832 58.92 37.6536 58.68C37.8867 58.59 38.1199 58.5 38.353 58.44C38.9942 58.2 39.6645 57.99 40.2765 57.72C40.5096 57.63 40.7428 57.51 40.9759 57.39C41.5879 57.12 42.2 56.82 42.812 56.49C43.0451 56.37 43.2491 56.22 43.4531 56.1C44.036 55.74 44.6189 55.41 45.2018 55.02C45.4058 54.9 45.5806 54.75 45.7846 54.6C46.3675 54.18 46.9212 53.76 47.4458 53.31C47.6207 53.16 47.7664 53.01 47.9413 52.89C48.2618 52.62 48.5824 52.35 48.8738 52.08C48.8738 52.05 48.8738 52.05 48.8447 52.02C54.6443 46.53 58.2872 38.7 58.2872 30ZM43.5406 44.91C35.6426 39.45 22.7029 39.45 14.7467 44.91C13.4644 45.78 12.4152 46.8 11.5409 47.91C7.11104 43.29 4.37154 36.96 4.37154 30C4.37154 15.93 15.4753 4.5 29.1436 4.5C42.812 4.5 53.9157 15.93 53.9157 30C53.9157 36.96 51.1762 43.29 46.7464 47.91C45.9012 46.8 44.8229 45.78 43.5406 44.91Z" fill="#292D32"/>
<path id="Vector_2" d="M29.1436 14.7891C23.1109 14.7891 18.2148 19.8291 18.2148 26.0391C18.2148 32.1291 22.8486 37.0791 28.9979 37.2591H29.2602H29.4642H29.5225C35.4095 37.0491 40.0434 32.1291 40.0725 26.0391C40.0725 19.8291 35.1764 14.7891 29.1436 14.7891Z" fill="#292D32"/>
</g>
</g>
</svg>
